<?xml version="1.0" encoding="UTF-8" standalone="no"?>
<!-- Created with Inkscape (http://www.inkscape.org/) -->

<svg
   width="2953.8157"
   height="2071.5281"
   viewBox="0 0 2953.8156 2071.5281"
   version="1.1"
   id="svg1"
   xml:space="preserve"
   inkscape:version="1.3 (1:1.3+202307231459+0e150ed6c4)"
   sodipodi:docname="envelope.svg"
   xmlns:inkscape="http://www.inkscape.org/namespaces/inkscape"
   xmlns:sodipodi="http://sodipodi.sourceforge.net/DTD/sodipodi-0.dtd"
   xmlns="http://www.w3.org/2000/svg"
   xmlns:svg="http://www.w3.org/2000/svg"><sodipodi:namedview
     id="namedview1"
     pagecolor="#ffffff"
     bordercolor="#000000"
     borderopacity="0.25"
     inkscape:showpageshadow="2"
     inkscape:pageopacity="0.0"
     inkscape:pagecheckerboard="0"
     inkscape:deskcolor="#d1d1d1"
     inkscape:document-units="px"
     inkscape:zoom="0.16223958"
     inkscape:cx="2878.4591"
     inkscape:cy="375.98716"
     inkscape:window-width="1920"
     inkscape:window-height="996"
     inkscape:window-x="0"
     inkscape:window-y="0"
     inkscape:window-maximized="1"
     inkscape:current-layer="layer1" /><defs
     id="defs1"><inkscape:path-effect
       effect="bspline"
       id="path-effect5"
       is_visible="true"
       lpeversion="1.3"
       weight="33.333333"
       steps="2"
       helper_size="0"
       apply_no_weight="true"
       apply_with_weight="true"
       only_selected="false"
       uniform="false" /><inkscape:path-effect
       effect="fillet_chamfer"
       id="path-effect4"
       is_visible="true"
       lpeversion="1"
       nodesatellites_param="F,0,0,1,0,67.05217,0,1 @ F,0,0,1,0,64.658121,0,1 @ F,0,0,1,0,59.44744,0,1 @ F,0,0,1,0,80.101129,0,1"
       radius="0"
       unit="px"
       method="auto"
       mode="F"
       chamfer_steps="1"
       flexible="false"
       use_knot_distance="true"
       apply_no_radius="true"
       apply_with_radius="true"
       only_selected="false"
       hide_knots="false" /><inkscape:path-effect
       effect="fillet_chamfer"
       id="path-effect2"
       is_visible="true"
       lpeversion="1"
       nodesatellites_param="F,0,0,1,0,50.074618,0,1 @ F,0,0,1,0,50.736991,0,1 @ F,0,0,1,0,45.072265,0,1 @ F,0,0,1,0,47.100134,0,1"
       radius="0"
       unit="px"
       method="auto"
       mode="F"
       chamfer_steps="1"
       flexible="false"
       use_knot_distance="true"
       apply_no_radius="true"
       apply_with_radius="true"
       only_selected="false"
       hide_knots="false" /></defs><g
     inkscape:label="Layer 1"
     inkscape:groupmode="layer"
     id="layer1"
     transform="translate(-454.31957,-70.144249)"><path
       style="opacity:1;fill:#ffffff;fill-opacity:1;fill-rule:evenodd;stroke-width:0.254137"
       id="rect4"
       width="703.22504"
       height="552.24548"
       x="614.0332"
       y="258.02234"
       inkscape:path-effect="#path-effect4"
       sodipodi:type="rect"
       d="m 681.08537,258.02234 h 571.51473 a 64.658121,64.658121 45 0 1 64.6581,64.65812 v 428.13992 a 59.44744,59.44744 135 0 1 -59.4474,59.44744 H 694.13433 A 80.101129,80.101129 45 0 1 614.0332,730.16669 V 325.07451 a 67.05217,67.05217 135 0 1 67.05217,-67.05217 z"
       transform="matrix(-4.130231,0,0,3.7487908,5944.2342,-898.85612)" /><path
       style="fill:#000000;stroke-width:1"
       d="m 3368.9019,2141.0664 c 1.8764,-0.4713 7.6325,-1.7874 12.7914,-2.9253 5.9578,-1.3136 12.4922,-6.9988 17.9109,-15.5828 l 8.5311,-13.5141 V 1103.9338 c 0,-996.31065 -0.059,-1005.194117 -6.756,-1014.598877 -3.7158,-5.2184 -11.7757,-11.72467 -17.9109,-14.45803 -9.7148,-4.3283 -197.7016,-4.93318 -1456.1185,-4.68516 -1386.11538,0.27292 -1445.34555,0.53527 -1454.34775,6.43361 -5.1614,3.38191 -11.2347,10.29042 -13.4962,15.35219 -3.1731,7.10194 -4.2737,238.545377 -4.819,1013.519767 -0.7723,1098.1178 -2.2472,1016.1999 18.5383,1029.8192 8.7052,5.7038 80.90347,6.0173 1450.71295,6.3041 792.8538,0.1667 1443.0873,-0.082 1444.9637,-0.5542 z m -2767.62458,-70.716 c -6.4625,-4.1849 1.7551,-14.4486 31.9524,-39.9088 14.466,-12.1963 30.3797,-26.0134 35.3636,-30.7042 16.0443,-15.1006 52.333,-46.4555 73.3748,-63.3984 11.2584,-9.0655 21.2374,-17.4449 22.1755,-18.6216 2.0062,-2.5165 66.5626,-59.323 80.6924,-71.0056 5.3433,-4.418 21.2292,-18.4198 35.302,-31.1152 14.0729,-12.6957 35.566,-31.3135 47.7625,-41.3729 12.1965,-10.0596 22.9543,-19.3412 23.9065,-20.6264 0.9521,-1.2852 7.4113,-6.8509 14.3541,-12.3685 6.9426,-5.517 24.5865,-20.8972 39.20838,-34.1775 14.6216,-13.2808 35.7962,-31.5926 47.0545,-40.6936 11.2582,-9.1008 25.8427,-21.6291 32.4101,-27.8398 6.5673,-6.2111 24.9337,-22.2774 40.814,-35.7031 15.8804,-13.4254 31.3589,-26.7129 34.3965,-29.5274 3.0381,-2.8145 15.2141,-13.5612 27.058,-23.8811 11.8438,-10.3202 26.3023,-23.1164 32.1297,-28.4362 5.8272,-5.3201 22.0937,-19.137 36.1474,-30.7044 14.0543,-11.5678 27.9743,-23.3349 30.9339,-26.1496 18.8834,-17.9581 44.3269,-40.6735 50.086,-44.7152 7.1558,-5.0222 42.3653,-34.9645 52.3299,-44.5016 14.8999,-14.2602 48.7817,-44.2488 74.5817,-66.0111 15.5717,-13.1347 32.4621,-27.7193 37.5347,-32.4102 5.0726,-4.691 16.6478,-14.6699 25.7231,-22.1755 34.9741,-28.9245 66.7952,-56.5425 88.9202,-77.1758 9.299,-8.672 20.1174,-16.7582 24.0415,-17.969 8.0382,-2.4805 16.1996,3.3086 58.3939,41.4203 14.622,13.2074 30.9571,27.6279 36.3003,32.0455 10.8952,9.0087 76.9466,67.0411 82.6876,72.6491 2.0357,1.9886 8.0862,6.686 13.4454,10.4388 8.0728,5.6527 26.9378,22.0205 51.9179,45.0447 32.1087,29.595 49.1544,36.5619 64.801,26.4864 11.1939,-7.2084 45.365,-35.9774 62.674,-52.7656 6.7719,-6.568 15.797,-14.2451 20.0553,-17.0597 4.2588,-2.8146 19.4434,-16.0939 33.7437,-29.51 14.3008,-13.4158 33.6773,-30.1814 43.0594,-37.2571 9.3818,-7.0753 21.6635,-17.0266 27.2927,-22.1137 5.6292,-5.087 19.446,-17.3773 30.7044,-27.3116 11.2584,-9.9342 21.2371,-18.9432 22.1753,-20.0199 0.9384,-1.0767 8.1292,-6.9379 15.9798,-13.0248 16.7193,-12.9631 20.2604,-12.3453 42.1732,7.3578 8.5289,7.6696 23.8811,21.0178 34.116,29.6632 10.2343,8.6453 29.9535,25.5327 43.8198,37.5276 13.8669,11.9948 29.9868,25.5085 35.822,30.0303 5.8356,4.5217 19.8213,16.9215 31.0797,27.5552 11.2583,10.6336 25.8429,23.6185 32.4102,28.8556 6.5674,5.2372 21.1519,18.144 32.4103,28.6814 11.2581,10.5377 33.3296,29.5496 49.0474,42.2482 15.718,12.6991 40.2816,33.7319 54.5858,46.7396 14.3041,13.0079 39.057,34.7178 55.0062,48.2442 15.9494,13.5266 37.4425,32.4045 47.7624,41.9512 10.3203,9.5465 27.9753,24.7797 39.2334,33.8515 11.2584,9.0715 31.9838,26.9467 46.0566,39.7223 14.0729,12.7756 34.7985,30.6455 46.0567,39.7107 11.2583,9.0657 34.4044,28.8332 51.4359,43.9278 17.031,15.095 40.7597,35.889 52.7302,46.2091 11.9703,10.32 36.5541,31.8129 54.6305,47.7623 33.4373,29.5025 62.2878,54.5449 86.8388,75.3754 7.5055,6.3686 21.3226,18.7571 30.7044,27.5307 9.3818,8.774 22.5032,20.2972 29.1587,25.6082 6.6555,5.3104 28.0109,23.4725 47.4565,40.36 19.4458,16.8874 48.543,42.008 64.6604,55.8229 16.1175,13.8152 34.294,29.4203 40.3922,34.6778 6.0982,5.2578 11.0877,12.7307 11.0877,16.607 0,6.8786 -1.7829,7.0698 -74.2024,7.9672 -185.5221,2.2987 -2582.20068,0.6148 -2585.95668,-1.8169 z m 2702.72558,-69.8267 c -9.4251,-8.8762 -37.8267,-33.9758 -63.1146,-55.7773 -25.2879,-21.8012 -51.677,-44.8294 -58.6423,-51.1741 -6.9653,-6.3442 -14.6413,-13.1043 -17.0581,-15.0219 -16.4669,-13.068 -64.7961,-54.366 -76.3556,-65.2469 -7.681,-7.2295 -31.353,-27.7294 -52.6047,-45.5551 -21.2518,-17.8253 -41.3546,-35.0011 -44.6733,-38.1683 -3.319,-3.1673 -14.9569,-12.9925 -25.8625,-21.8339 -10.9058,-8.8411 -35.323,-30.4057 -54.2608,-47.9204 -18.9375,-17.5149 -40.4192,-36.6031 -47.7373,-42.4184 -7.3174,-5.8157 -14.0837,-11.602 -15.0359,-12.8585 -0.9522,-1.2569 -14.7804,-13.2117 -30.7295,-26.5671 -15.9494,-13.3552 -34.3721,-29.4697 -40.9394,-35.8106 -6.5674,-6.3408 -20.3843,-18.4026 -30.7045,-26.8035 -10.3199,-8.4012 -32.6785,-27.5915 -49.6859,-42.6452 -17.0068,-15.0535 -39.9722,-35.0463 -51.0338,-44.4282 -11.0613,-9.3819 -26.2773,-22.4313 -33.813,-28.9986 -7.5355,-6.5674 -19.0305,-16.5463 -25.5447,-22.1755 -6.5142,-5.6291 -14.9963,-13.3707 -18.8494,-17.2036 -3.8528,-3.833 -14.6816,-13.0276 -24.0634,-20.4328 -24.2634,-19.151 -55.4655,-45.6558 -70.1563,-59.5942 -13.7703,-13.0648 -50.1874,-45.039 -54.3996,-47.7625 -1.4511,-0.9381 -15.7842,-13.7156 -31.8515,-28.3944 -16.0672,-14.6791 -34.3834,-30.7989 -40.7027,-35.8218 -6.3191,-5.0233 -13.8662,-11.5108 -16.7712,-14.4171 -2.905,-2.906 -14.6862,-12.8849 -26.1812,-22.1754 -27.7975,-22.4665 -27.7975,-28.3747 0,-50.8411 11.495,-9.2901 23.2762,-19.2691 26.1812,-22.1754 2.905,-2.906 10.7658,-9.6289 17.4681,-14.9394 6.7028,-5.3108 19.8629,-16.8636 29.2447,-25.6727 9.3818,-8.8091 27.037,-24.41485 39.2333,-34.67925 12.1965,-10.2645 33.6896,-28.7687 47.7625,-41.1211 32.5947,-28.6094 73.332,-63.5415 88.7016,-76.0613 6.5674,-5.3494 19.617,-16.8503 28.9993,-25.5571 18.1448,-16.8386 32.4011,-29.339 64.7423,-56.7696 11.0616,-9.3819 34.027,-29.37455 51.0338,-44.42791 17.0074,-15.05369 39.366,-34.24395 49.6859,-42.64504 10.3202,-8.40139 24.1371,-20.46278 30.7045,-26.80359 6.5673,-6.34078 24.99,-22.4555 40.9394,-35.8109 15.9491,-13.35507 29.7773,-25.30999 30.7295,-26.56684 0.9522,-1.25647 7.5468,-6.90679 14.6553,-12.55571 13.2257,-10.51047 66.4368,-58.08492 78.9846,-70.61742 3.8374,-3.83295 14.6532,-13.00914 24.0352,-20.39185 9.3818,-7.38237 22.4313,-18.2408 28.9986,-24.12958 31.8468,-28.55646 47.5951,-42.17047 64.8205,-56.03489 10.32,-8.30657 27.2075,-23.03547 37.5275,-32.73056 15.4106,-14.47747 41.9316,-37.0732 67.5084,-57.51655 2.4168,-1.93164 10.0928,-8.70298 17.0581,-15.0472 6.9653,-6.34455 33.3544,-29.37287 58.6423,-51.17403 25.2879,-21.80153 53.6895,-46.90135 63.1146,-55.7773 16.4422,-15.4846 26.4899,-19.80677 30.5969,-13.1613 2.5897,4.19014 2.7051,1811.19702 0.1159,1815.38652 -4.2235,6.8337 -14.119,2.6534 -30.7128,-12.9736 z M 527.03715,1105.9446 c 0,-868.94225 0.2695,-909.19675 6.072,-910.3144 3.72507,-0.71744 16.25317,7.84225 32.41027,22.14438 14.486,12.8225 36.3172,31.71186 48.5137,41.97634 12.1963,10.26451 29.8515,25.82481 39.2333,34.57865 9.3819,8.75348 22.4313,20.26731 28.9986,25.586 16.8514,13.64709 54.7059,46.30771 88.7017,76.53144 15.9494,14.17963 41.2804,35.5987 56.2914,47.59834 15.0112,11.99963 32.6662,27.34978 39.2335,34.11191 6.5674,6.7618 19.6168,18.24287 28.9986,25.51334 9.3819,7.27046 19.3768,15.63571 22.2108,18.58981 2.8341,2.95412 11.278,10.60055 18.7639,16.99217 7.4862,6.39164 25.1252,21.93182 39.1981,34.53394 25.46138,22.80043 54.58288,48.05037 66.89288,57.99964 3.5512,2.87018 15.0079,12.84911 25.4602,22.17541 20.9502,18.69423 47.824,41.78325 71.4038,61.34812 8.4436,7.00607 26.8663,23.15283 40.9391,35.88185 23.8123,21.53841 51.7088,45.72541 66.8929,57.99781 3.5513,2.8702 15.0555,12.8491 25.565,22.1754 10.5098,9.3263 25.6662,22.3303 33.6807,28.8977 33.6384,27.563 64.0014,53.8487 78.8166,68.232 8.6967,8.4437 24.0943,22.4258 34.2165,31.0712 10.1227,8.6453 29.2032,24.935 42.4011,36.1998 13.1987,11.26485 28.5507,24.91675 34.1161,30.33805 5.5657,5.4211 20.8657,18.6134 34.0004,29.3159 40.8498,33.2864 49.4683,42.0808 49.4683,50.4785 0,8.3979 -8.6185,17.192 -49.4683,50.4784 -13.1347,10.7028 -28.0068,23.4674 -33.0494,28.3654 -5.0429,4.8984 -19.6275,17.8996 -32.4103,28.8922 -12.7831,10.9922 -31.9143,27.71 -42.5134,37.1506 -23.3375,20.7859 -52.7213,46.5981 -58.4309,51.3289 -21.6148,17.9086 -53.8563,45.6084 -79.2314,68.0704 -16.8873,14.9489 -33.6097,29.5335 -37.161,32.4102 -15.4881,12.5479 -43.1982,36.5785 -66.8929,58.0107 -14.0728,12.729 -32.4955,28.8757 -40.9391,35.8818 -23.5798,19.5644 -50.4536,42.6539 -71.4038,61.3477 -10.4523,9.3266 -21.909,19.3056 -25.4602,22.1753 -11.999,9.6982 -41.1685,34.9642 -66.89288,57.9414 -27.9407,24.957 -69.8743,61.1191 -88.7017,76.4943 -6.5673,5.3631 -19.6612,16.8636 -29.0973,25.5569 -9.4364,8.6933 -26.324,23.4522 -37.5275,32.7978 -11.2041,9.3459 -33.4204,28.5937 -49.3698,42.7735 -15.9492,14.1796 -43.4211,38.0051 -61.0488,52.9456 -17.6275,14.9408 -36.0501,30.7733 -40.9394,35.1837 -26.5358,23.9386 -55.5783,49.2882 -73.7093,64.3364 -11.2583,9.3441 -28.1457,24.1115 -37.5277,32.8162 -10.3267,9.5817 -19.7503,15.5128 -23.88107,15.0308 -6.804,-0.7943 -6.8233,-3.3366 -6.8233,-909.9415 z m 1400.46295,198.3475 c 0,-1.5895 -2.9801,-4.2761 -6.6226,-5.9703 -7.2201,-3.3577 -21.2872,-15.3297 -93.8259,-79.8523 -26.3759,-23.4609 -57.1677,-50.2932 -68.4259,-59.627 -11.2583,-9.3338 -21.2373,-17.8857 -22.1755,-19.0043 -3.9478,-4.7063 -59.5362,-53.0071 -92.1133,-80.0369 -8.4437,-7.0061 -26.8663,-23.1528 -40.9392,-35.8819 -14.0728,-12.7293 -34.0306,-30.29775 -44.3508,-39.04105 -10.32,-8.7436 -28.6096,-24.6229 -40.6433,-35.2876 -12.0338,-10.6646 -26.8313,-23.2285 -32.8838,-27.9195 -17.81,-13.8037 -72.4618,-61.125 -88.1752,-76.3479 -16.7818,-16.2583 -50.9667,-45.9252 -61.1698,-53.0855 -3.8483,-2.7009 -9.4958,-7.3066 -12.5506,-10.2348 -17.2442,-16.53258 -46.6135,-42.5307 -73.4593,-65.02784 -16.7933,-14.07284 -32.9712,-27.88983 -35.9508,-30.7044 -2.9797,-2.81457 -15.1441,-13.56111 -27.0318,-23.88121 -11.8879,-10.32011 -24.0996,-21.06664 -27.1377,-23.88123 -3.0376,-2.81457 -18.5161,-16.10173 -34.3965,-29.5274 -15.8803,-13.42536 -34.2467,-29.47046 -40.814,-35.65568 -6.5674,-6.1849 -24.2224,-21.18026 -39.2334,-33.32284 -15.011,-12.14258 -34.2906,-28.33711 -42.8438,-35.98796 -8.55338,-7.65087 -25.37358,-22.35454 -37.37838,-32.67463 -22.254,-19.13089 -87.3448,-76.82724 -94.0666,-83.38024 -2.0398,-1.98862 -11.0312,-9.7565 -19.9805,-17.26202 -20.6006,-17.27671 -84.9205,-73.78306 -87.1878,-76.59628 -0.9381,-1.16404 -13.2199,-11.54929 -27.293,-23.07778 -14.0728,-11.52883 -30.1925,-25.02205 -35.8217,-29.98559 -5.6292,-4.96319 -19.446,-17.17981 -30.7044,-27.14782 -41.6706,-36.89478 -55.9992,-49.09227 -60.9288,-51.86695 -2.7799,-1.56456 -6.1107,-7.06677 -7.4014,-12.22683 l -2.3472,-9.38192 H 1930.5418 3261.4364 v 7.11457 c 0,3.91276 -4.9895,11.41591 -11.0877,16.67353 -6.0982,5.25728 -24.2747,20.86228 -40.3922,34.67756 -16.1174,13.8153 -45.2146,38.9356 -64.6604,55.82304 -19.4456,16.88741 -40.801,35.04978 -47.4565,40.36028 -6.6555,5.31084 -19.7769,16.83967 -29.1587,25.61976 -9.3818,8.78009 -27.0371,24.3834 -39.2333,34.67381 -12.1966,10.29041 -22.9433,19.65187 -23.8814,20.80294 -0.9382,1.15107 -10.9171,9.7524 -22.1752,19.11383 -11.2584,9.36143 -26.6106,23.12827 -34.1161,30.59253 -7.5055,7.46459 -25.1605,22.72468 -39.2333,33.91132 -14.0731,11.18663 -30.9604,25.41883 -37.5278,31.62726 -6.5673,6.20809 -24.99,22.2672 -40.9392,35.68673 -15.9494,13.41921 -29.7776,25.42702 -30.7297,26.68386 -0.9517,1.25648 -7.4114,6.79897 -14.354,12.31621 -6.9428,5.51758 -24.5865,20.89742 -39.2082,34.17811 -14.6217,13.28035 -35.7965,31.56857 -47.0549,40.64038 -11.2581,9.0718 -28.9131,24.30494 -39.2334,33.85161 -10.3199,9.54635 -31.813,28.42445 -47.7624,41.95111 -15.9492,13.52632 -40.7021,35.23606 -55.0062,48.24416 -14.3042,13.00772 -38.8678,34.07612 -54.5858,46.81832 -15.7178,12.7423 -33.9512,28.2204 -40.5185,34.3958 -6.5674,6.175 -30.2101,26.8404 -52.5397,45.9225 -22.3294,19.0825 -46.1253,39.8957 -52.8798,46.2518 -11.6155,10.9305 -36.7965,32.8046 -78.5671,68.24955 -10.1886,8.6453 -27.0759,23.3493 -37.5277,32.6756 -10.4521,9.3266 -21.909,19.3056 -25.4602,22.1754 -15.1342,12.232 -43.0606,36.4407 -66.8929,57.9874 -14.0729,12.7232 -35.5659,31.3581 -47.7624,41.4107 -12.1965,10.0526 -22.9543,19.3291 -23.9065,20.6143 -0.9521,1.2851 -7.8607,7.1995 -15.3522,13.1432 -7.4915,5.9437 -28.7863,24.8784 -47.3213,42.077 -18.5352,17.1989 -35.8634,32.5299 -38.5074,34.0696 -2.6437,1.5396 -9.7409,7.6805 -15.7714,13.6464 -17.7026,17.5135 -33.1328,26.7797 -33.1328,19.8975 z"
       id="path5" /></g></svg>
