<?xml version="1.0" encoding="UTF-8" standalone="no"?>
<!-- Created with Inkscape (http://www.inkscape.org/) -->

<svg
   width="420.0314"
   height="499.953"
   viewBox="0 0 420.0314 499.953"
   version="1.1"
   id="svg1"
   xml:space="preserve"
   inkscape:version="1.3 (1:1.3+202307231459+0e150ed6c4)"
   sodipodi:docname="trash.svg"
   xmlns:inkscape="http://www.inkscape.org/namespaces/inkscape"
   xmlns:sodipodi="http://sodipodi.sourceforge.net/DTD/sodipodi-0.dtd"
   xmlns="http://www.w3.org/2000/svg"
   xmlns:svg="http://www.w3.org/2000/svg"><sodipodi:namedview
     id="namedview1"
     pagecolor="#ffffff"
     bordercolor="#000000"
     borderopacity="0.25"
     inkscape:showpageshadow="2"
     inkscape:pageopacity="0.0"
     inkscape:pagecheckerboard="0"
     inkscape:deskcolor="#d1d1d1"
     inkscape:document-units="px"
     inkscape:zoom="0.5703125"
     inkscape:cx="407.67123"
     inkscape:cy="476.93151"
     inkscape:window-width="1920"
     inkscape:window-height="996"
     inkscape:window-x="0"
     inkscape:window-y="0"
     inkscape:window-maximized="1"
     inkscape:current-layer="layer1" /><defs
     id="defs1" /><g
     inkscape:label="Layer 1"
     inkscape:groupmode="layer"
     id="layer1"
     transform="translate(-849.65909,-179.90833)"><path
       style="fill:#000000"
       d="m 962.69058,678.16228 c -15.1403,-3.26947 -25.8938,-8.10183 -37.1195,-16.68049 -17.4442,-13.33086 -29.6764,-32.26942 -34.7065,-53.73467 -1.5122,-6.45323 -1.674,-17.83365 -1.674,-117.74168 0,-120.69518 -0.3035,-114.40093 5.6649,-117.48735 3.6176,-1.87072 9.8418,-1.79869 12.6183,0.14602 5.4573,3.82247 5.2153,-1.50045 5.2341,115.13963 0.019,120.97876 -0.3049,115.23231 7.3835,130.79966 7.9506,16.09811 21.1093,27.69522 38.4814,33.91472 l 8.6178,3.08528 h 92.50002 92.5 l 8.6177,-3.08528 c 16.6175,-5.9493 30.0458,-17.4361 37.7312,-32.27592 8.3223,-16.06967 7.6039,-2.47289 7.9198,-149.8888 l 0.2812,-131.25 -153.775,-0.008 c -101.85332,-0.005 -155.94372,-0.35944 -160.19812,-1.04972 -19.7786,-3.20912 -36.4646,-18.63307 -41.5452,-38.40282 -6.8922,-26.81934 9.6731,-54.92048 36.5998,-62.08727 8.0424,-2.14057 335.69472,-2.14057 343.73712,0 22.5896,6.01244 38.1314,26.48113 38.1314,50.21937 0,14.04371 -6.1261,27.67076 -16.8463,37.47298 -5.1432,4.70279 -17.7375,11.85501 -20.8754,11.85501 -1.0309,0 -1.2783,24.52959 -1.2783,126.77624 0,80.14709 -0.3759,129.89294 -1.022,135.25 -2.4598,20.39451 -11.4168,39.05728 -25.62,53.38176 -11.6062,11.70535 -23.9066,19.01506 -40.8579,24.28053 l -9,2.79561 -91.5,0.20514 c -85.46732,0.19162 -92.06052,0.0841 -100.00002,-1.6304 z M 1230.307,312.4012 c 10.4945,-5.61428 15.7953,-14.08387 15.7953,-25.23773 0,-8.30247 -2.6865,-14.1726 -9.3303,-20.38707 -8.8491,-8.27732 5.0954,-7.67713 -177.5129,-7.64035 -152.05792,0.0306 -162.38302,0.14136 -167.16002,1.79268 -6.2192,2.14984 -10.1874,5.26105 -14.2529,11.17467 -10.2809,14.95454 -3.1925,35.20736 14.547,41.5638 3.1537,1.13001 31.7661,1.32468 168.79742,1.14843 l 165,-0.21223 z m -229.3184,288.00277 c -1.21112,-0.23489 -3.57362,-1.98927 -5.25002,-3.89862 l -3.048,-3.47154 v -95.01486 c 0,-105.18567 -0.391,-99.07856 6.5531,-102.37375 5.03772,-2.39054 9.50322,-1.38058 13.37052,3.02398 l 3.0764,3.50382 v 95.33034 95.33035 l -2.1679,2.75604 c -1.979,2.5158 -7.6489,5.70851 -9.55,5.37749 -0.4302,-0.0749 -1.773,-0.32836 -2.9841,-0.56325 z m 110.1172,-0.70999 c -1.6967,-0.74532 -4.0592,-2.59378 -5.25,-4.1077 l -2.1652,-2.75259 V 497.50334 402.173 l 3.0764,-3.50382 c 3.8672,-4.40456 8.3327,-5.41452 13.3704,-3.02398 6.9442,3.29526 6.5532,-2.8171 6.5532,102.42323 v 95.06434 l -3.25,3.4142 c -3.7876,3.97895 -7.9965,5.05277 -12.3348,3.14701 z M 994.88868,202.43059 c -8.0769,-3.98051 -8.2178,-16.68007 -0.2309,-20.81026 4.4142,-2.28266 125.65132,-2.28266 130.06552,0 8.0695,4.17292 7.8307,16.94735 -0.3898,20.84823 -3.0741,1.45873 -10.0539,1.63239 -64.7941,1.61207 -54.6157,-0.0203 -61.71122,-0.20136 -64.65072,-1.65004 z"
       id="path1" /></g></svg>
