<?xml version="1.0" encoding="UTF-8" standalone="no"?>
<!-- Created with Inkscape (http://www.inkscape.org/) -->

<svg
   width="753.41956"
   height="746.00433"
   viewBox="0 0 753.41956 746.00433"
   version="1.1"
   id="svg1"
   xml:space="preserve"
   inkscape:version="1.3 (1:1.3+202307231459+0e150ed6c4)"
   sodipodi:docname="user_icon.svg"
   xmlns:inkscape="http://www.inkscape.org/namespaces/inkscape"
   xmlns:sodipodi="http://sodipodi.sourceforge.net/DTD/sodipodi-0.dtd"
   xmlns="http://www.w3.org/2000/svg"
   xmlns:svg="http://www.w3.org/2000/svg"><sodipodi:namedview
     id="namedview1"
     pagecolor="#ffffff"
     bordercolor="#000000"
     borderopacity="0.25"
     inkscape:showpageshadow="2"
     inkscape:pageopacity="0.0"
     inkscape:pagecheckerboard="0"
     inkscape:deskcolor="#d1d1d1"
     inkscape:document-units="px"
     inkscape:zoom="0.64895833"
     inkscape:cx="673.38684"
     inkscape:cy="553.19422"
     inkscape:window-width="1920"
     inkscape:window-height="996"
     inkscape:window-x="0"
     inkscape:window-y="0"
     inkscape:window-maximized="1"
     inkscape:current-layer="layer1" /><defs
     id="defs1" /><g
     inkscape:label="Layer 1"
     inkscape:groupmode="layer"
     id="layer1"
     transform="translate(-504.80279,-101.9762)"><path
       style="fill:#000000;stroke-width:0.999999"
       d="m 636.81992,709.70034 c -3.72859,-1.43297 -3.774,-5.86196 -0.19957,-19.45839 9.43009,-35.86963 27.90427,-67.01191 55.64637,-93.80403 16.27931,-15.72185 27.72048,-24.44735 44.49655,-33.93487 22.12793,-12.51418 49.62559,-21.94466 75.49505,-25.89145 16.53052,-2.52197 90.70838,-3.71329 116.76913,-1.87534 57.63752,4.06491 104.60925,24.93544 143.50045,63.7602 27.3466,27.30002 48.5592,65.48879 55.6051,100.10533 1.3406,6.58636 1.2744,7.51784 -0.6816,9.59418 -2.145,2.2769 -4.5686,2.29866 -245.60323,2.20776 -133.89027,-0.0502 -244.15294,-0.36706 -245.02825,-0.70339 z m 477.33868,-14.61355 c -7.0721,-24.0358 -18.8238,-48.49489 -31.4293,-65.41445 -31.8952,-42.8109 -77.6259,-70.66628 -131.99443,-80.4002 -10.72888,-1.92088 -18.64471,-2.16734 -69.60692,-2.16734 -62.37194,0 -67.57076,0.4056 -92.00238,7.17776 -66.47999,18.42747 -120.43198,70.81996 -139.00788,134.98956 l -2.44062,8.43125 H 881.30275 1114.9284 Z M 866.01096,481.32257 c -55.71339,-5.90418 -101.86877,-48.14135 -110.81325,-101.40604 -2.13877,-12.73634 -0.89292,-38.35492 2.44509,-50.27837 3.13024,-11.18148 11.10421,-27.78141 18.22371,-37.93759 6.61287,-9.43346 22.55391,-24.78076 32.25938,-31.05792 22.69888,-14.68075 44.79908,-21.14419 72.20053,-21.11576 35.81215,0.0371 63.80189,11.31226 89.17212,35.92099 18.33689,17.78666 29.04922,36.58842 34.66096,60.83573 2.6186,11.31415 2.6386,36.94703 0.038,48.17302 -7.23046,31.20634 -24.99321,57.34123 -51.04101,75.09814 -25.02726,17.06117 -56.76051,24.98777 -87.14504,21.7678 z m 41.52859,-14.98721 c 19.06718,-4.5107 36.34794,-13.76652 50.8934,-27.25909 15.79224,-14.64899 26.08788,-31.44391 31.79958,-51.87341 2.27765,-8.14664 2.76365,-12.85002 2.76365,-26.74723 0,-20.01308 -2.39802,-30.52259 -10.74673,-47.09839 -14.86368,-29.51056 -41.22068,-50.13877 -75.20544,-58.85926 -12.34326,-3.16725 -37.92811,-3.54191 -50.90654,-0.74546 -33.90697,7.3059 -62.50874,28.85971 -77.90486,58.70783 -14.32092,27.7636 -15.27659,62.00945 -2.54293,91.12395 14.21914,32.51095 47.206,57.60448 84.73083,64.45589 12.19708,2.22697 33.80369,1.44523 47.11904,-1.70483 z"
       id="path1" /></g></svg>
